<?xml version="1.0" encoding="utf-8"?>
<!-- Svg Vector Icons : http://www.onlinewebfonts.com/icon -->
<!DOCTYPE svg PUBLIC "-//W3C//DTD SVG 1.1//EN" "http://www.w3.org/Graphics/SVG/1.1/DTD/svg11.dtd">
<svg version="1.1" xmlns="http://www.w3.org/2000/svg" xmlns:xlink="http://www.w3.org/1999/xlink" x="0px" y="0px" viewBox="0 0 1000 1000" enable-background="new 0 0 1000 1000" xml:space="preserve">
<metadata> Svg Vector Icons : http://www.onlinewebfonts.com/icon </metadata>
<g><path d="M903.1,330.7c-38.2-10-128.3-9.9-259.9-13.4c6.3-28.7,7.7-54.6,7.7-100.6c0-109.8-80-206.6-150.8-206.6c-50,0-91.3,40.9-91.9,91.1c-0.7,61.7-19.7,168.1-122.5,222.1c-7.5,4-29.1,14.6-32.2,16l1.6,1.4c-16.1-13.8-38.4-24.5-61.2-24.5h-91.9c-50.7,0-91.9,41.2-91.9,91.9V898c0,50.6,41.2,91.8,91.9,91.8h91.9c36.4,0,66.9-22,81.7-52.8c0.3,0.1,1,0.3,1.4,0.4c2,0.5,4.4,1.1,7.3,1.9c0.5,0.1,0.8,0.2,1.4,0.3c17.7,4.4,51.6,12.5,124.2,29.2c15.6,3.5,97.7,21,182.9,21h167.4c51.1,0,88.9-19,109.7-59c20.3-35.6,120.3-226.2,120.2-494.9C990,397.2,963.2,347.9,903.1,330.7L903.1,330.7z M224.4,898c0,16.9-13.7,30.6-30.6,30.6h-91.9c-16.9,0-30.6-13.7-30.6-30.6V408.2c0-16.9,13.7-30.6,30.6-30.6h91.9c16.9,0,30.6,13.7,30.6,30.6L224.4,898L224.4,898z M928.1,455.1c-12.8,307.7-112.2,446.8-112.2,446.8c-9.3,16.7-24.2,26.7-55.8,26.7H592.7c-84.1,0-167.5-19.1-169.7-19.5c-127.2-29.3-133.9-31.6-141.9-33.8l4.5-449.8c0-46.5,1.1-34.8,0-34.2C425.5,333.3,468.1,206.3,469.4,102c0.2-14.6,11.5-30.6,30.6-30.6c32.4,0,89.6,65,89.6,145.4c0,72.6-2.9,85.2-28.4,160.8c306.3,0,304.1,4.4,331.1,11.5c33.5,9.6,36.4,37.3,36.4,46.9C928.8,446.4,928.4,444.9,928.1,455.1L928.1,455.1z"/></g>
</svg>